<svg width="1024" height="1024" xmlns="http://www.w3.org/2000/svg" version="1.1">
 <title/>

 <g>
  <title>Layer 1</title>
  <g id="icomoon-ignore"/>
  <path id="svg_1" d="m640,1.16c-212.064,0 -384,171.936 -384,384c0,64.832 16.224,125.856 44.64,179.456l-267.008,266.944l0.224,0.192c-20.864,20.512 -33.856,48.928 -33.856,80.512c0,62.368 50.56,112.928 112.928,112.928c31.52,0 59.968,-12.992 80.48,-33.888l-0.064,-0.064l266.912,-266.88c53.632,28.512 114.752,44.8 179.744,44.8c212.064,0 384,-171.936 384,-384s-171.936,-384 -384,-384zm-486.56,950.144c-10.304,10.688 -24.576,17.376 -40.512,17.376c-31.2,0 -56.48,-25.248 -56.48,-56.448c0,-15.936 6.72,-30.176 17.376,-40.512l-0.288,-0.256l258.112,-258.112c22.56,30.432 49.44,57.312 79.808,79.936l-258.016,258.016zm486.56,-246.112c-176.704,0 -320,-143.328 -320,-320c0,-176.704 143.296,-320 320,-320c176.672,0 320,143.296 320,320c0,176.672 -143.328,320 -320,320zm0,-544.032c8.8,0 16,7.168 16,16s-7.2,16 -16,16c-106.048,0 -192,85.984 -192,192c0,8.832 -7.168,16 -16,16s-16,-7.168 -16,-16c0,-123.712 100.256,-224 224,-224z" fill="#ffffff"/>
 </g>
</svg>